HIERARCHY
ROOT Hips
{
 OFFSET 0.000000 0.000000 0.000000
 CHANNELS 6 Xposition Yposition Zposition Yrotation Xrotation Zrotation
 JOINT Chest
 {
  OFFSET 0.000000 9.581000 -0.001100
  CHANNELS 3 Yrotation Xrotation Zrotation
  JOINT Chest2
  {
   OFFSET 0.000000 9.561100 0.002200
   CHANNELS 3 Yrotation Xrotation Zrotation
   JOINT Chest3
   {
    OFFSET 0.000000 9.521100 0.000000
    CHANNELS 3 Yrotation Xrotation Zrotation
    JOINT Chest4
    {
     OFFSET 0.000000 9.511400 0.000000
     CHANNELS 3 Yrotation Xrotation Zrotation
     JOINT Neck
     {
      OFFSET 0.000000 14.375100 0.000000
      CHANNELS 3 Yrotation Xrotation Zrotation
      JOINT Head
      {
       OFFSET 0.000000 8.901200 0.004600
       CHANNELS 3 Yrotation Xrotation Zrotation
       End Site
       {
        OFFSET 0.000000 16.962200 0.002400
       }
      }
     }
     JOINT RightCollar
     {
      OFFSET -2.920100 9.518800 0.000000
      CHANNELS 3 Yrotation Xrotation Zrotation
      JOINT RightShoulder
      {
       OFFSET -13.664500 0.000000 0.000000
       CHANNELS 3 Yrotation Xrotation Zrotation
       JOINT RightElbow
       {
        OFFSET 0.000000 -29.999200 0.000000
        CHANNELS 3 Yrotation Xrotation Zrotation
        JOINT RightWrist
        {
         OFFSET 0.000000 -24.253600 0.000000
         CHANNELS 3 Yrotation Xrotation Zrotation
         End Site
         {
          OFFSET 0.000000 -17.918900 0.000000
         }
        }
       }
      }
     }
     JOINT LeftCollar
     {
      OFFSET 2.920100 9.518800 0.000000
      CHANNELS 3 Yrotation Xrotation Zrotation
      JOINT LeftShoulder
      {
       OFFSET 13.664500 0.000000 0.000000
       CHANNELS 3 Yrotation Xrotation Zrotation
       JOINT LeftElbow
       {
        OFFSET 0.000000 -29.999200 0.000000
        CHANNELS 3 Yrotation Xrotation Zrotation
        JOINT LeftWrist
        {
         OFFSET 0.000000 -24.253600 0.000000
         CHANNELS 3 Yrotation Xrotation Zrotation
         End Site
         {
          OFFSET 0.000000 -17.918900 0.000000
         }
        }
       }
      }
     }
    }
   }
  }
 }
 JOINT RightHip
 {
  OFFSET -7.797300 0.005300 0.000500
  CHANNELS 3 Yrotation Xrotation Zrotation
  JOINT RightKnee
  {
   OFFSET 0.000000 -40.663400 -0.000500
   CHANNELS 3 Yrotation Xrotation Zrotation
   JOINT RightAnkle
   {
    OFFSET 0.000000 -39.523700 -0.000900
    CHANNELS 3 Yrotation Xrotation Zrotation
    JOINT RightToe
    {
     OFFSET 0.000000 -6.418000 14.485300
     CHANNELS 3 Yrotation Xrotation Zrotation
     End Site
     {
      OFFSET 0.000000 -1.465200 6.326400
     }
    }
   }
  }
 }
 JOINT LeftHip
 {
  OFFSET 7.797300 0.005300 0.000500
  CHANNELS 3 Yrotation Xrotation Zrotation
  JOINT LeftKnee
  {
   OFFSET 0.000000 -40.663400 -0.000500
   CHANNELS 3 Yrotation Xrotation Zrotation
   JOINT LeftAnkle
   {
    OFFSET 0.000000 -39.523700 -0.000900
    CHANNELS 3 Yrotation Xrotation Zrotation
    JOINT LeftToe
    {
     OFFSET 0.000000 -6.418000 14.485300
     CHANNELS 3 Yrotation Xrotation Zrotation
     End Site
     {
      OFFSET 0.000000 -1.465200 6.326400
     }
    }
   }
  }
 }
}
MOTION
Frames: 7
Frame Time: 0.008333
-14.770578 126.864156 14.162711 173.307069 -44.275849 -5.122898 2.692336 21.562397 2.765646 0.284412 2.917834 0.309447 0.514233 4.797432 0.516168 2.209656 18.312204 2.268774 4.638105 16.140717 -3.228268 5.734847 -8.588202 -4.544288 -2.140741 1.190507 2.209705 -2.215178 -3.661259 -7.668924 -90.266011 -65.124967 138.361234 9.055103 21.807042 12.987397 -8.632844 -2.471969 1.328212 -5.776431 -8.327302 6.948996 48.466804 -58.462809 -93.083948 -0.993396 1.826995 0.679905 -13.549840 -15.763221 4.172208 -161.350602 81.262714 -153.304314 9.923103 -6.534110 0.368854 -0.009768 0.019836 -0.004329 6.184701 -23.288863 -7.355833 11.400119 68.734037 1.489557 12.623012 -7.261123 13.383228 0.001105 -0.001564 0.000490
-14.770044 126.864919 14.168888 173.302052 -44.315897 -5.128555 2.714789 21.606469 2.783047 0.293245 2.931487 0.309705 0.504258 4.799369 0.516805 2.227807 18.368405 2.276561 4.542516 15.919856 -3.469810 5.691594 -8.821781 -4.785173 -2.132147 1.115321 2.210303 -2.274643 -3.562778 -7.682120 -90.180138 -65.118324 138.294425 9.060848 21.843116 13.032077 -8.674018 -2.511282 1.325942 -5.754545 -8.290026 6.953498 48.341318 -58.420773 -92.981308 -0.977967 1.804204 0.728925 -13.574572 -15.785626 4.262337 -160.454310 81.227909 -152.508888 9.932200 -6.387793 0.442020 -0.012281 0.006431 -0.005442 6.218559 -23.246225 -7.359157 11.381217 68.721480 1.496208 12.619922 -7.252076 13.385918 -0.000206 -0.000498 -0.000091
-14.770161 126.868270 14.171982 173.322933 -44.375994 -5.149306 2.716281 21.672695 2.797592 0.295463 2.946257 0.309804 0.501714 4.800410 0.516979 2.246105 18.419760 2.287492 4.447783 15.699945 -3.709290 5.649341 -9.053652 -5.024899 -2.125417 1.050408 2.209159 -2.322102 -3.466412 -7.687378 -90.075880 -65.113896 138.211217 9.058199 21.877519 13.066939 -8.706399 -2.545082 1.330392 -5.722119 -8.241165 6.952048 48.216174 -58.409512 -92.874600 -0.945295 1.790922 0.760267 -13.587740 -15.747190 4.273742 -160.024552 81.226901 -152.109432 9.963015 -6.309251 0.471209 -0.036545 0.028173 -0.016199 6.228685 -23.182565 -7.360882 11.371146 68.711227 1.508746 12.605680 -7.240013 13.389638 0.000136 0.000241 0.000060
-14.770887 126.867629 14.178797 173.298921 -44.403207 -5.140363 2.742054 21.702083 2.809391 0.308812 2.977566 0.316660 0.501626 4.804621 0.516773 2.251351 18.445864 2.295095 4.355747 15.484283 -3.944692 5.609622 -9.280289 -5.261787 -2.117559 0.998981 2.207946 -2.363088 -3.372770 -7.682581 -89.953084 -65.109499 138.110971 9.052753 21.909670 13.098256 -8.727130 -2.529509 1.360997 -5.701932 -8.279107 6.929580 48.078546 -58.406376 -92.724665 -0.884836 1.812931 0.775326 -13.593443 -15.755953 4.318993 -159.405940 81.207313 -151.550863 9.980809 -6.228403 0.507944 -0.018694 0.012635 -0.008284 6.258621 -23.155313 -7.365488 11.405569 68.696259 1.548465 12.613980 -7.235327 13.401258 0.002229 0.000346 0.000988
-14.771564 126.868514 14.183663 173.290436 -44.440621 -5.143562 2.755681 21.739805 2.821161 0.314657 2.989113 0.320471 0.512719 4.857682 0.525654 2.252947 18.438899 2.297471 4.265493 15.275544 -4.174933 5.571101 -9.498941 -5.494346 -2.108910 0.955249 2.207323 -2.400252 -3.276455 -7.665934 -89.810324 -65.106693 137.991521 9.044077 21.935285 13.120515 -8.744152 -2.560964 1.376317 -5.683966 -8.260048 6.915617 47.942036 -58.423166 -92.569076 -0.820257 1.853913 0.771003 -13.648546 -15.791584 4.398637 -158.629846 81.138009 -150.871455 9.957217 -6.050111 0.551514 -0.009735 0.012693 -0.004314 6.280026 -23.115727 -7.366550 11.436572 68.681027 1.583859 12.615503 -7.230864 13.422541 0.003653 0.000087 0.001619
-14.773263 126.869561 14.187665 173.288236 -44.477373 -5.146478 2.767637 21.775678 2.832056 0.317468 3.000018 0.323225 0.515922 4.874162 0.528998 2.251232 18.439622 2.297362 4.187527 15.098844 -4.390801 5.531555 -9.709477 -5.721759 -2.090181 0.938765 2.214014 -2.434721 -3.171179 -7.641061 -89.655516 -65.106182 137.860371 9.029839 21.951032 13.126976 -8.752898 -2.580442 1.381232 -5.618455 -8.088833 6.931608 47.970270 -58.524893 -92.636638 -0.757806 1.908348 0.746824 -13.692382 -15.815720 4.449144 -157.914920 81.083818 -150.238360 9.957509 -5.895188 0.604666 -0.007604 0.013014 -0.003370 6.349526 -23.068927 -7.406609 11.454790 68.660189 1.665410 12.614987 -7.223429 13.434792 0.001234 0.000682 0.000547
-14.775467 126.868868 14.192838 173.289815 -44.496699 -5.151692 2.780424 21.794489 2.849053 0.311291 3.005091 0.318414 0.521466 4.893339 0.536590 2.266850 18.475460 2.314060 4.090159 14.890767 -4.614925 5.490671 -9.912656 -5.945128 -2.087840 0.888485 2.209212 -2.466810 -3.057894 -7.605833 -89.497842 -65.108752 137.725662 9.014727 21.954414 13.119139 -8.771251 -2.610553 1.409144 -5.564610 -7.993591 6.922127 47.948104 -58.599044 -92.627573 -0.703838 1.967076 0.703335 -13.732610 -15.851519 4.489046 -157.240623 81.039284 -149.636981 9.973793 -5.746784 0.661304 -0.009526 0.015224 -0.004222 6.378009 -23.047273 -7.430278 11.497981 68.644144 1.734423 12.611125 -7.214915 13.448805 0.001387 0.001139 0.000614
